<svg 
          width="14.601646423339844" 
          height="8.715839385986328" fill="none" 
          xmlns="http://www.w3.org/2000/svg">
          <defs>
            <linearGradient id="e75169">
        <stop offset="0%" style="stop-color:rgb(70.00000342726707,70.00000342726707,70.00000342726707);stop-opacity:1" />
        <stop offset="100%" style="stop-color:rgb(255,255,255);stop-opacity:0" />
        </linearGradient>
          </defs>
          <path d="M 7.303845983607601 8.71497558217646 C 5.353083718563035 8.71497558217646 3.4023219964013602 8.716731525927857 1.451559731356795 8.713922084477828 C 0.7264725163870875 8.712868543934066 0.1490354494780867 8.245096451646246 0.0205975261333682 7.562050957047537 C 0.003519907402346329 7.470744111229812 0.0006736376801125699 7.375925567343628 0.0006736376801125699 7.282862813882156 C -0.00003792976701334132 5.333812764359218 -0.000393713490576297 3.3847624469070583 0.0006736376801125699 1.4360635186287944 C 0.0010294214036755255 0.610438886009219 0.6101312877554456 0.0021948762473076085 1.4480019483299307 0.0018436960660538652 C 5.343477948687802 -0.000614565268134745 9.238954491928563 -0.000614565268134745 13.134430492286436 0.0018436960660538652 C 13.990090339436687 0.0021948762473076085 14.594210621589927 0.5992011306750844 14.59705689137843 1.4585390292970635 C 14.603460998800184 3.4072379575753273 14.603105605605046 5.356288275027487 14.596345714791081 7.3053383245504255 C 14.593499445002577 8.106380317139852 13.966963935437734 8.71321953121413 13.156132778741297 8.71427307175789 C 11.205370513696732 8.71708251320792 9.254608248652167 8.715326762357714 7.303845983607601 8.71497558217646 Z M 10.93461907229824 6.326247785855912 C 11.218890265635755 6.326247785855912 11.503517301743301 6.32062915989579 11.787432720171147 6.328706304391688 C 11.94006393963402 6.332920466566733 12.011220688057724 6.28199934192025 11.992008365792467 6.12677769565733 C 11.987027393530045 6.086391974747737 11.986671609607672 6.044250157806663 11.992008365792467 6.004215616751262 C 12.013711173923856 5.838809746343993 11.935794233555832 5.791751516627388 11.777114687942783 5.795614498686591 C 11.415994214026783 5.804394003414172 11.054517880375663 5.795614477231321 10.693041614584905 5.800530999899698 C 10.551439688763196 5.8026380809872204 10.491313150890774 5.754877568618048 10.492736285785025 5.607381895892921 C 10.495226771916235 5.38578719857825 10.513015654975932 5.163490057827316 10.473523660268777 4.942246531994049 C 10.453243987826879 4.828112970535498 10.529737054523983 4.805286622643228 10.62651023051406 4.805988983005736 C 10.87520305070004 4.808096064093258 11.12389666824527 4.803179112973611 11.372233713521581 4.807744455264498 C 11.72588272771855 4.8147680591512225 11.720901770830743 4.817577792602239 11.710228258461155 4.462885788211514 C 11.7059588537784 4.324520791695371 11.652234725758376 4.280974268158363 11.515969559302414 4.285188430333408 C 11.249843327450336 4.293616754683498 10.98264970300889 4.283081445402124 10.716523471156812 4.289402689057166 C 10.566026952047219 4.292914491000528 10.497005473367638 4.253933615884474 10.489178231316714 4.084313587226905 C 10.479927854636617 3.8908132949931478 10.501986576049193 3.69942008188454 10.494870901312854 3.5073245258131256 C 10.48953414512806 3.3672036300260246 10.550017250763045 3.323657083333024 10.684859283650152 3.3257641644205465 C 11.03423889714056 3.3310318674664146 11.383974370366088 3.321901278648407 11.733353983856496 3.329978423144305 C 11.88349471109133 3.3334902250876675 11.939352633687859 3.2773013612876674 11.923342366193795 3.1354245662296076 C 11.918717177853747 3.0950388453200146 11.918717177853747 3.053248476162355 11.923342366193795 3.012862755252762 C 11.940775769377348 2.859045828406608 11.872109167517968 2.8084757351281517 11.718410589395907 2.8102316360998327 C 11.179398249722237 2.816904059609066 10.640386520791818 2.82006479970222 10.101374181118148 2.8095293936104837 C 9.916010855641447 2.8060175916671213 9.869046535995656 2.871337047948224 9.873671724335704 3.0437665154393265 C 9.887191505963637 3.540335314888112 9.892529087341028 4.037606390317399 9.888971249972858 4.533472813312224 C 9.885057628947395 5.0707785093384 9.888970728296329 5.608786481345078 9.875095163276184 6.146092177371253 C 9.871537325908013 6.286564253012546 9.929886119531242 6.330461712284641 10.064372369026135 6.32765227083461 C 10.354336096639067 6.3220333879345505 10.645011475861875 6.325896798575849 10.934975203474806 6.325896798575849 L 10.93461907229824 6.326247785855912 Z M 8.207180856209737 5.500974341463317 C 8.191526372107887 5.499920800919556 8.175872365149205 5.498515865772669 8.159862097655141 5.497462325228907 C 8.124995291288034 5.369281552857112 8.078031860188847 5.242857182123567 8.057040620962523 5.11221815077243 C 7.952795985253415 4.465344239764984 7.822578644477463 3.824791381931649 7.629032292497307 3.1972323545319585 C 7.492411342649132 2.753691771675638 7.553962344524603 2.822171848476013 7.120261990736681 2.816904145430145 C 6.917821045468641 2.814445884095956 6.902166194496712 2.8351656150671483 6.955889537616227 3.0318265176158428 C 7.107453415385006 3.5845841272264534 7.263286914406523 4.136287971209208 7.416985492528583 4.688694392592839 C 7.465727863915835 4.863933298917475 7.545779377398962 5.02547653421295 7.563924347366943 5.215816199386194 C 7.585627155498332 5.445136870238658 7.678842535737729 5.668136203242214 7.7407489053607 5.8939450588071844 C 7.86527321139107 6.347318677580873 7.864917419516311 6.344509070244977 8.341667606174797 6.328354781253181 C 8.461566719623844 6.324140619078136 8.524539987727927 6.281999057245452 8.553002686673281 6.164353697244985 C 8.624870999760777 5.869011163567751 8.696027830889296 5.571912554791007 8.782127496630423 5.2818377105538605 C 8.981722174760755 4.608625285363672 9.153210109109487 3.928389497527719 9.347112235999312 3.253772386411917 C 9.479819568533138 2.792672794100435 9.471992028532814 2.7884587112052275 8.98492411501759 2.815148405242162 C 8.877833212170774 2.8211184685197126 8.830158301233249 2.8646646642097338 8.79991668320619 2.9636974751924647 C 8.619890117095238 3.552275480167358 8.473307546119255 4.147877249681851 8.369418693802361 4.754365452338885 C 8.326368860931797 5.005459290896812 8.261615961212218 5.252690092449112 8.206825267916063 5.5016768518818875 L 8.207180856209737 5.500974341463317 Z M 3.988297574196314 4.085367084925539 L 3.9893648819602285 4.085367084925539 C 3.9893648819602285 3.787215112414772 3.9907882123506386 3.4890630059393937 3.989009293666554 3.1905598452016464 C 3.9865188075353433 2.781434938292842 4.042020857938013 2.821469477255046 3.609387845844186 2.810582891309118 C 3.4336306804397965 2.806017549018232 3.385600106721247 2.8741465872552157 3.388090592852458 3.0367430188289504 C 3.39556205098101 3.510133897664354 3.3902252083802873 3.983875964726737 3.3902252083802873 4.457618031789121 C 3.3902252083802873 5.012482737270458 3.3912924401326445 5.567698463523012 3.3909366564090817 6.12256316900435 C 3.3909366564090817 6.229321945152086 3.3944945242613977 6.3237896531225175 3.5435679098021367 6.32308729276001 C 4.106417762201749 6.320629031425821 4.669267784252265 6.3213310488964884 5.2317618787073 6.322735769621503 C 5.337785431377476 6.322735769621503 5.3822580280309404 6.27251709233603 5.378700190662771 6.171377193855361 C 5.376921271978686 6.118700165489876 5.3740753061038715 6.065672300554515 5.3801236296032515 6.013697631897413 C 5.40040330204515 5.842672883823077 5.321774881838786 5.7892931482784995 5.154200742937853 5.793858490569386 C 4.828658642173387 5.802989175151159 4.5027609531152475 5.793156151792973 4.176863060476023 5.797721494083859 C 4.042732594373343 5.799477395055541 3.9797587319609407 5.752419251029189 3.986874406697279 5.613351894804663 C 3.994701648748204 5.454969621481228 3.9747779335906954 5.2976407956197 3.9826051756416203 5.137502631398095 C 3.9996827943726423 4.78737597348465 3.987941714461194 4.436196085801791 3.987941714461194 4.085367084925539 L 3.988297574196314 4.085367084925539 Z M 6.478427835068586 3.813553425650598 C 6.478427835068586 3.766846458992766 6.478427835068586 3.7197883166671373 6.478427835068586 3.6730813500093054 C 6.478427835068586 3.5034613213517365 6.479495186239275 3.3338413596764727 6.478427835068586 3.164221331018904 C 6.475937348937375 2.788107347149696 6.520054839741921 2.8151482873690035 6.124067542493725 2.815850647731511 C 5.884625090505296 2.816553008094018 5.8803556646824475 2.820415893735333 5.879999880958884 3.0662420261075956 C 5.879288313511759 4.030582793233564 5.879288356918533 4.994923828288755 5.8789325731949695 5.959264595414724 C 5.8789325731949695 6.329408513389884 5.87893260712515 6.322384868162517 6.256419134048063 6.329057291671751 C 6.426483765177036 6.332217913499273 6.482697304960908 6.276731334314213 6.481274170066656 6.107813665365027 C 6.474158495330317 5.342943189384558 6.478072246774912 4.5784239016310675 6.478072246774912 3.813553425650598 L 6.478427835068586 3.813553425650598 Z M 1.2587250140214268 1.7443996817927567 C 1.253388257836633 2.088205085585175 1.520581828201853 2.3649352209548593 1.866047832860457 2.3740659055366318 C 2.1883879085426363 2.3824942298867215 2.4833323791241892 2.087853930849348 2.487601783806945 1.7538815629742974 C 2.4915154048324073 1.4343075774938951 2.205821269313464 1.1491493736674594 1.8760097339122555 1.1435304907673995 C 1.5529581084107396 1.1382627877215314 1.263705986283848 1.419558006872267 1.2587250140214268 1.7443996817927567 Z" fill="url(#e75169)"/>
        </svg>