<svg 
          width="3.395925283432007" 
          height="6.081042289733887" fill="none" 
          xmlns="http://www.w3.org/2000/svg">
          <path d="M 3.395609054216678 3.050227148165957 C 3.395609054216678 3.8284423876394724 3.3963206215091275 4.6063065058927775 3.395609054216678 5.3845217453662935 C 3.3948974869242288 5.93622578534819 2.954080730487659 6.2266517808318635 2.4374828483361366 6.007866537594171 C 1.7678980220326326 5.724464155450551 1.1008039079619258 5.434389130476913 0.4365558228990078 5.139046617377105 C 0.15441939124405885 5.013675300946639 -0.0014134724078586009 4.799104140310546 0.000009662177039958243 4.477774303065593 C 0.0049906333567246546 3.518350103998783 0.0028551931035943187 2.558926172861175 0.00036470751375197025 1.5995019737943648 C -0.00034685977869730936 1.2809815751872033 0.15513048285138298 1.0639522310981306 0.4394016143955837 0.9385809146676648 C 1.1047170748507575 0.6456966520031371 1.7721675914620028 0.3559730078061246 2.4421082095629254 0.0736241567788897 C 2.96155235823345 -0.14516108645880252 3.3938294410797 0.14140181367888083 3.394896792018374 0.6983735427338493 C 3.396675710315767 1.4822076594829476 3.395252923117526 2.2663930314168583 3.395252923117526 3.050227148165957 L 3.395609054216678 3.050227148165957 Z" fill="rgb(70.00000342726707,70.00000342726707,70.00000342726707)"/>
        </svg>